<mxfile host="app.diagrams.net" modified="2023-11-02T11:40:03.879Z" agent="Mozilla/5.0 (Windows NT 10.0; Win64; x64) AppleWebKit/537.36 (KHTML, like Gecko) Chrome/118.0.0.0 Safari/537.36" etag="v-JaXfZmI9zEfSKcQzp_" version="22.0.8" type="github">
  <diagram name="Seite-1" id="o4jdSwBVd1RgepoCdTSm">
    <mxGraphModel dx="2501" dy="870" grid="1" gridSize="10" guides="1" tooltips="1" connect="1" arrows="1" fold="1" page="1" pageScale="1" pageWidth="827" pageHeight="1169" math="0" shadow="0">
      <root>
        <mxCell id="0" />
        <mxCell id="1" parent="0" />
        <mxCell id="6N65BO_zx4ahX__2NLoi-1" value="Einkauf der Steaks" style="rounded=0;whiteSpace=wrap;html=1;" parent="1" vertex="1">
          <mxGeometry x="80" y="120" width="120" height="60" as="geometry" />
        </mxCell>
        <mxCell id="6N65BO_zx4ahX__2NLoi-2" value="Vorbereitung des Grills" style="rounded=0;whiteSpace=wrap;html=1;" parent="1" vertex="1">
          <mxGeometry x="400" y="280" width="120" height="60" as="geometry" />
        </mxCell>
        <mxCell id="6N65BO_zx4ahX__2NLoi-3" value="Zubereitung des Steaks" style="rounded=0;whiteSpace=wrap;html=1;" parent="1" vertex="1">
          <mxGeometry x="240" y="200" width="120" height="60" as="geometry" />
        </mxCell>
        <mxCell id="6N65BO_zx4ahX__2NLoi-5" value="Grillen" style="rounded=0;whiteSpace=wrap;html=1;" parent="1" vertex="1">
          <mxGeometry x="560" y="360" width="120" height="60" as="geometry" />
        </mxCell>
        <mxCell id="6N65BO_zx4ahX__2NLoi-59" style="edgeStyle=orthogonalEdgeStyle;rounded=0;orthogonalLoop=1;jettySize=auto;html=1;exitX=1;exitY=0.5;exitDx=0;exitDy=0;" parent="1" source="6N65BO_zx4ahX__2NLoi-7" edge="1">
          <mxGeometry relative="1" as="geometry">
            <mxPoint x="1070" y="469.90697674418607" as="targetPoint" />
          </mxGeometry>
        </mxCell>
        <mxCell id="6N65BO_zx4ahX__2NLoi-7" value="Servieren" style="rounded=0;whiteSpace=wrap;html=1;" parent="1" vertex="1">
          <mxGeometry x="720" y="440" width="120" height="60" as="geometry" />
        </mxCell>
        <mxCell id="6N65BO_zx4ahX__2NLoi-8" value="" style="endArrow=classic;html=1;rounded=0;entryX=0;entryY=0.25;entryDx=0;entryDy=0;strokeColor=#005BF7;" parent="1" target="6N65BO_zx4ahX__2NLoi-1" edge="1">
          <mxGeometry width="50" height="50" relative="1" as="geometry">
            <mxPoint x="-10" y="135" as="sourcePoint" />
            <mxPoint x="40" y="140" as="targetPoint" />
          </mxGeometry>
        </mxCell>
        <mxCell id="6N65BO_zx4ahX__2NLoi-9" value="" style="endArrow=classic;html=1;rounded=0;entryX=0.25;entryY=1;entryDx=0;entryDy=0;strokeColor=#3333FF;" parent="1" target="6N65BO_zx4ahX__2NLoi-1" edge="1">
          <mxGeometry width="50" height="50" relative="1" as="geometry">
            <mxPoint x="110" y="610" as="sourcePoint" />
            <mxPoint x="140" y="290" as="targetPoint" />
          </mxGeometry>
        </mxCell>
        <mxCell id="6N65BO_zx4ahX__2NLoi-10" value="" style="endArrow=classic;html=1;rounded=0;entryX=0.75;entryY=1;entryDx=0;entryDy=0;strokeColor=#3333FF;" parent="1" target="6N65BO_zx4ahX__2NLoi-1" edge="1">
          <mxGeometry width="50" height="50" relative="1" as="geometry">
            <mxPoint x="170" y="610" as="sourcePoint" />
            <mxPoint x="170" y="180" as="targetPoint" />
          </mxGeometry>
        </mxCell>
        <mxCell id="6N65BO_zx4ahX__2NLoi-12" value="" style="endArrow=classic;html=1;rounded=0;exitX=1;exitY=0.5;exitDx=0;exitDy=0;strokeColor=#EA6B66;" parent="1" source="6N65BO_zx4ahX__2NLoi-1" edge="1">
          <mxGeometry width="50" height="50" relative="1" as="geometry">
            <mxPoint x="270" y="150" as="sourcePoint" />
            <mxPoint x="950.7692307692307" y="150" as="targetPoint" />
            <Array as="points">
              <mxPoint x="270" y="150" />
              <mxPoint x="290" y="130" />
              <mxPoint x="290" y="150" />
              <mxPoint x="440" y="150" />
              <mxPoint x="450" y="140" />
              <mxPoint x="470" y="130" />
              <mxPoint x="490" y="150" />
              <mxPoint x="630" y="150" />
              <mxPoint x="640" y="140" />
              <mxPoint x="640" y="110" />
              <mxPoint x="650" y="110" />
              <mxPoint x="670" y="130" />
              <mxPoint x="680" y="150" />
              <mxPoint x="760" y="150" />
              <mxPoint x="720" y="120" />
              <mxPoint x="760" y="110" />
              <mxPoint x="810" y="60" />
              <mxPoint x="780" y="130" />
              <mxPoint x="710" y="60" />
              <mxPoint x="790" y="110" />
              <mxPoint x="840" y="110" />
              <mxPoint x="790" y="150" />
            </Array>
          </mxGeometry>
        </mxCell>
        <mxCell id="6N65BO_zx4ahX__2NLoi-13" value="" style="endArrow=classic;html=1;rounded=0;entryX=-0.031;entryY=0.614;entryDx=0;entryDy=0;entryPerimeter=0;fillColor=#6666FF;strokeColor=#3333FF;" parent="1" target="6N65BO_zx4ahX__2NLoi-3" edge="1">
          <mxGeometry width="50" height="50" relative="1" as="geometry">
            <mxPoint x="190" y="240" as="sourcePoint" />
            <mxPoint x="280" y="200" as="targetPoint" />
          </mxGeometry>
        </mxCell>
        <mxCell id="6N65BO_zx4ahX__2NLoi-14" value="" style="endArrow=classic;html=1;rounded=0;entryX=0.25;entryY=1;entryDx=0;entryDy=0;strokeColor=#3333FF;" parent="1" target="6N65BO_zx4ahX__2NLoi-3" edge="1">
          <mxGeometry width="50" height="50" relative="1" as="geometry">
            <mxPoint x="270" y="610" as="sourcePoint" />
            <mxPoint x="290" y="260" as="targetPoint" />
          </mxGeometry>
        </mxCell>
        <mxCell id="6N65BO_zx4ahX__2NLoi-15" value="" style="endArrow=classic;html=1;rounded=0;entryX=0.25;entryY=1;entryDx=0;entryDy=0;strokeColor=#3333FF;" parent="1" edge="1">
          <mxGeometry width="50" height="50" relative="1" as="geometry">
            <mxPoint x="465" y="610" as="sourcePoint" />
            <mxPoint x="465" y="340" as="targetPoint" />
          </mxGeometry>
        </mxCell>
        <mxCell id="6N65BO_zx4ahX__2NLoi-16" value="" style="endArrow=classic;html=1;rounded=0;entryX=0.35;entryY=0.995;entryDx=0;entryDy=0;entryPerimeter=0;strokeColor=#3333FF;" parent="1" target="6N65BO_zx4ahX__2NLoi-5" edge="1">
          <mxGeometry width="50" height="50" relative="1" as="geometry">
            <mxPoint x="600" y="610" as="sourcePoint" />
            <mxPoint x="600" y="420" as="targetPoint" />
          </mxGeometry>
        </mxCell>
        <mxCell id="6N65BO_zx4ahX__2NLoi-17" value="" style="endArrow=classic;html=1;rounded=0;entryX=0.25;entryY=1;entryDx=0;entryDy=0;strokeColor=#3333FF;" parent="1" target="6N65BO_zx4ahX__2NLoi-7" edge="1">
          <mxGeometry width="50" height="50" relative="1" as="geometry">
            <mxPoint x="750" y="620" as="sourcePoint" />
            <mxPoint x="750" y="500" as="targetPoint" />
          </mxGeometry>
        </mxCell>
        <mxCell id="6N65BO_zx4ahX__2NLoi-19" value="Geld" style="text;html=1;align=center;verticalAlign=middle;resizable=0;points=[];autosize=1;strokeColor=none;fillColor=none;" parent="1" vertex="1">
          <mxGeometry x="-25" y="100" width="50" height="30" as="geometry" />
        </mxCell>
        <mxCell id="6N65BO_zx4ahX__2NLoi-20" value="&lt;span style=&quot;color: rgb(0, 0, 0); font-family: Helvetica; font-size: 12px; font-style: normal; font-variant-ligatures: normal; font-variant-caps: normal; font-weight: 400; letter-spacing: normal; orphans: 2; text-align: center; text-indent: 0px; text-transform: none; widows: 2; word-spacing: 0px; -webkit-text-stroke-width: 0px; background-color: rgb(251, 251, 251); text-decoration-thickness: initial; text-decoration-style: initial; text-decoration-color: initial; float: none; display: inline !important;&quot;&gt;GÃ¤ste&lt;/span&gt;" style="text;whiteSpace=wrap;html=1;" parent="1" vertex="1">
          <mxGeometry x="750" y="545" width="60" height="40" as="geometry" />
        </mxCell>
        <mxCell id="6N65BO_zx4ahX__2NLoi-21" value="" style="endArrow=classic;html=1;rounded=0;entryX=0;entryY=0.25;entryDx=0;entryDy=0;strokeColor=#005EFF;" parent="1" target="6N65BO_zx4ahX__2NLoi-3" edge="1">
          <mxGeometry width="50" height="50" relative="1" as="geometry">
            <mxPoint x="200" y="170" as="sourcePoint" />
            <mxPoint x="290" y="170" as="targetPoint" />
            <Array as="points">
              <mxPoint x="210" y="170" />
              <mxPoint x="210" y="215" />
            </Array>
          </mxGeometry>
        </mxCell>
        <mxCell id="6N65BO_zx4ahX__2NLoi-22" value="Steaks" style="text;html=1;align=center;verticalAlign=middle;resizable=0;points=[];autosize=1;strokeColor=none;fillColor=none;" parent="1" vertex="1">
          <mxGeometry x="200" y="160" width="60" height="30" as="geometry" />
        </mxCell>
        <mxCell id="6N65BO_zx4ahX__2NLoi-25" value="" style="endArrow=classic;html=1;rounded=0;entryX=0;entryY=0.25;entryDx=0;entryDy=0;strokeColor=#005EFF;" parent="1" edge="1">
          <mxGeometry width="50" height="50" relative="1" as="geometry">
            <mxPoint x="520" y="330" as="sourcePoint" />
            <mxPoint x="560" y="375" as="targetPoint" />
            <Array as="points">
              <mxPoint x="530" y="330" />
              <mxPoint x="530" y="375" />
            </Array>
          </mxGeometry>
        </mxCell>
        <mxCell id="6N65BO_zx4ahX__2NLoi-26" value="Marinierte, warme, nicht auf dem&lt;br style=&quot;border-color: var(--border-color);&quot;&gt;Grill liegende Steaks" style="text;html=1;align=center;verticalAlign=middle;resizable=0;points=[];autosize=1;strokeColor=none;fillColor=none;" parent="1" vertex="1">
          <mxGeometry x="670" y="340" width="200" height="40" as="geometry" />
        </mxCell>
        <mxCell id="6N65BO_zx4ahX__2NLoi-28" value="" style="endArrow=classic;html=1;rounded=0;entryX=-0.006;entryY=0.154;entryDx=0;entryDy=0;strokeColor=#005EFF;entryPerimeter=0;" parent="1" target="6N65BO_zx4ahX__2NLoi-7" edge="1">
          <mxGeometry width="50" height="50" relative="1" as="geometry">
            <mxPoint x="680" y="380" as="sourcePoint" />
            <mxPoint x="720" y="425" as="targetPoint" />
            <Array as="points">
              <mxPoint x="690" y="380" />
              <mxPoint x="690" y="450" />
            </Array>
          </mxGeometry>
        </mxCell>
        <mxCell id="6N65BO_zx4ahX__2NLoi-29" value="Marinierte, auf dem &lt;br&gt;Grill liegende Steaks" style="text;html=1;align=center;verticalAlign=middle;resizable=0;points=[];autosize=1;strokeColor=none;fillColor=none;" parent="1" vertex="1">
          <mxGeometry x="535" y="310" width="130" height="40" as="geometry" />
        </mxCell>
        <mxCell id="6N65BO_zx4ahX__2NLoi-30" value="" style="endArrow=classic;html=1;rounded=0;strokeColor=#005EFF;entryX=-0.003;entryY=0.367;entryDx=0;entryDy=0;entryPerimeter=0;" parent="1" target="6N65BO_zx4ahX__2NLoi-2" edge="1">
          <mxGeometry width="50" height="50" relative="1" as="geometry">
            <mxPoint x="360" y="230" as="sourcePoint" />
            <mxPoint x="430" y="230" as="targetPoint" />
            <Array as="points">
              <mxPoint x="370" y="230" />
              <mxPoint x="380" y="230" />
              <mxPoint x="380" y="300" />
            </Array>
          </mxGeometry>
        </mxCell>
        <mxCell id="6N65BO_zx4ahX__2NLoi-31" value="Marinierte Steaks" style="text;html=1;align=center;verticalAlign=middle;resizable=0;points=[];autosize=1;strokeColor=none;fillColor=none;" parent="1" vertex="1">
          <mxGeometry x="320" y="250" width="120" height="30" as="geometry" />
        </mxCell>
        <mxCell id="6N65BO_zx4ahX__2NLoi-32" value="Tasche" style="text;html=1;align=center;verticalAlign=middle;resizable=0;points=[];autosize=1;strokeColor=none;fillColor=none;" parent="1" vertex="1">
          <mxGeometry x="115" y="240" width="60" height="30" as="geometry" />
        </mxCell>
        <mxCell id="6N65BO_zx4ahX__2NLoi-34" value="Einkaufszettel" style="text;html=1;align=center;verticalAlign=middle;resizable=0;points=[];autosize=1;strokeColor=none;fillColor=none;" parent="1" vertex="1">
          <mxGeometry x="15" y="240" width="100" height="30" as="geometry" />
        </mxCell>
        <mxCell id="6N65BO_zx4ahX__2NLoi-38" value="WÃ¼rze, Ãl" style="text;html=1;align=center;verticalAlign=middle;resizable=0;points=[];autosize=1;strokeColor=none;fillColor=none;" parent="1" vertex="1">
          <mxGeometry x="175" y="240" width="80" height="30" as="geometry" />
        </mxCell>
        <mxCell id="6N65BO_zx4ahX__2NLoi-39" value="Messer, Brett, &lt;br&gt;SchÃ¼ssel" style="text;html=1;align=center;verticalAlign=middle;resizable=0;points=[];autosize=1;strokeColor=none;fillColor=none;" parent="1" vertex="1">
          <mxGeometry x="260" y="300" width="100" height="40" as="geometry" />
        </mxCell>
        <mxCell id="6N65BO_zx4ahX__2NLoi-40" value="Kohle, &lt;br&gt;GrillanzÃ¼nder, &lt;br&gt;Feuerzeug" style="text;html=1;align=center;verticalAlign=middle;resizable=0;points=[];autosize=1;strokeColor=none;fillColor=none;" parent="1" vertex="1">
          <mxGeometry x="390" y="410" width="100" height="60" as="geometry" />
        </mxCell>
        <mxCell id="6N65BO_zx4ahX__2NLoi-41" value="Grillzange" style="text;html=1;align=center;verticalAlign=middle;resizable=0;points=[];autosize=1;strokeColor=none;fillColor=none;" parent="1" vertex="1">
          <mxGeometry x="535" y="440" width="80" height="30" as="geometry" />
        </mxCell>
        <mxCell id="6N65BO_zx4ahX__2NLoi-42" value="" style="endArrow=classic;html=1;rounded=0;entryX=0.25;entryY=1;entryDx=0;entryDy=0;strokeColor=#3333FF;" parent="1" edge="1">
          <mxGeometry width="50" height="50" relative="1" as="geometry">
            <mxPoint x="501" y="610" as="sourcePoint" />
            <mxPoint x="501" y="340" as="targetPoint" />
          </mxGeometry>
        </mxCell>
        <mxCell id="6N65BO_zx4ahX__2NLoi-43" value="Grill" style="text;html=1;align=center;verticalAlign=middle;resizable=0;points=[];autosize=1;strokeColor=none;fillColor=none;" parent="1" vertex="1">
          <mxGeometry x="470" y="390" width="40" height="30" as="geometry" />
        </mxCell>
        <mxCell id="6N65BO_zx4ahX__2NLoi-44" value="" style="endArrow=classic;html=1;rounded=0;entryX=0.25;entryY=1;entryDx=0;entryDy=0;strokeColor=#3333FF;" parent="1" edge="1">
          <mxGeometry width="50" height="50" relative="1" as="geometry">
            <mxPoint x="396" y="610" as="sourcePoint" />
            <mxPoint x="396" y="340" as="targetPoint" />
          </mxGeometry>
        </mxCell>
        <mxCell id="6N65BO_zx4ahX__2NLoi-45" value="Alufolie" style="text;html=1;align=center;verticalAlign=middle;resizable=0;points=[];autosize=1;strokeColor=none;fillColor=none;" parent="1" vertex="1">
          <mxGeometry x="340" y="390" width="60" height="30" as="geometry" />
        </mxCell>
        <mxCell id="6N65BO_zx4ahX__2NLoi-47" value="" style="endArrow=classic;html=1;rounded=0;entryX=0.25;entryY=1;entryDx=0;entryDy=0;strokeColor=#3333FF;" parent="1" edge="1">
          <mxGeometry width="50" height="50" relative="1" as="geometry">
            <mxPoint x="810" y="620" as="sourcePoint" />
            <mxPoint x="810" y="500" as="targetPoint" />
          </mxGeometry>
        </mxCell>
        <mxCell id="6N65BO_zx4ahX__2NLoi-48" value="&lt;span style=&quot;color: rgb(0, 0, 0); font-family: Helvetica; font-size: 12px; font-style: normal; font-variant-ligatures: normal; font-variant-caps: normal; font-weight: 400; letter-spacing: normal; orphans: 2; text-align: center; text-indent: 0px; text-transform: none; widows: 2; word-spacing: 0px; -webkit-text-stroke-width: 0px; background-color: rgb(251, 251, 251); text-decoration-thickness: initial; text-decoration-style: initial; text-decoration-color: initial; float: none; display: inline !important;&quot;&gt;Teller&lt;/span&gt;" style="text;whiteSpace=wrap;html=1;" parent="1" vertex="1">
          <mxGeometry x="810" y="545" width="60" height="40" as="geometry" />
        </mxCell>
        <mxCell id="6N65BO_zx4ahX__2NLoi-49" value="" style="endArrow=classic;html=1;rounded=0;entryX=0.25;entryY=0;entryDx=0;entryDy=0;strokeColor=#3333FF;" parent="1" target="6N65BO_zx4ahX__2NLoi-1" edge="1">
          <mxGeometry width="50" height="50" relative="1" as="geometry">
            <mxPoint x="110" y="50" as="sourcePoint" />
            <mxPoint x="110" y="20" as="targetPoint" />
          </mxGeometry>
        </mxCell>
        <mxCell id="6N65BO_zx4ahX__2NLoi-51" value="QualitÃ¤t, Budget, PrÃ¤ferenzen" style="text;html=1;align=center;verticalAlign=middle;resizable=0;points=[];autosize=1;strokeColor=none;fillColor=none;" parent="1" vertex="1">
          <mxGeometry x="25" y="20" width="180" height="30" as="geometry" />
        </mxCell>
        <mxCell id="6N65BO_zx4ahX__2NLoi-53" value="" style="endArrow=classic;html=1;rounded=0;entryX=0.375;entryY=-0.046;entryDx=0;entryDy=0;strokeColor=#3333FF;entryPerimeter=0;" parent="1" target="6N65BO_zx4ahX__2NLoi-3" edge="1">
          <mxGeometry width="50" height="50" relative="1" as="geometry">
            <mxPoint x="285" y="40" as="sourcePoint" />
            <mxPoint x="320" y="-40" as="targetPoint" />
          </mxGeometry>
        </mxCell>
        <mxCell id="6N65BO_zx4ahX__2NLoi-54" value="Rezept" style="text;html=1;align=center;verticalAlign=middle;resizable=0;points=[];autosize=1;strokeColor=none;fillColor=none;" parent="1" vertex="1">
          <mxGeometry x="280" y="20" width="60" height="30" as="geometry" />
        </mxCell>
        <mxCell id="6N65BO_zx4ahX__2NLoi-55" value="" style="endArrow=classic;html=1;rounded=0;entryX=0.375;entryY=-0.046;entryDx=0;entryDy=0;strokeColor=#3333FF;entryPerimeter=0;" parent="1" edge="1">
          <mxGeometry width="50" height="50" relative="1" as="geometry">
            <mxPoint x="465" y="40" as="sourcePoint" />
            <mxPoint x="465" y="277" as="targetPoint" />
          </mxGeometry>
        </mxCell>
        <mxCell id="6N65BO_zx4ahX__2NLoi-56" value="Art des Grills" style="text;html=1;align=center;verticalAlign=middle;resizable=0;points=[];autosize=1;strokeColor=none;fillColor=none;" parent="1" vertex="1">
          <mxGeometry x="460" y="30" width="90" height="30" as="geometry" />
        </mxCell>
        <mxCell id="6N65BO_zx4ahX__2NLoi-60" value="Marinierte, warme, nicht auf dem&lt;br style=&quot;border-color: var(--border-color);&quot;&gt;Grill liegende sondern sich auf einem &lt;br&gt;Teller befindliche Steaks" style="text;html=1;align=center;verticalAlign=middle;resizable=0;points=[];autosize=1;strokeColor=none;fillColor=none;" parent="1" vertex="1">
          <mxGeometry x="827" y="420" width="220" height="60" as="geometry" />
        </mxCell>
        <mxCell id="6N65BO_zx4ahX__2NLoi-62" value="" style="endArrow=classic;html=1;rounded=0;entryX=0.25;entryY=1;entryDx=0;entryDy=0;strokeColor=#3333FF;" parent="1" edge="1">
          <mxGeometry width="50" height="50" relative="1" as="geometry">
            <mxPoint x="760" y="630" as="sourcePoint" />
            <mxPoint x="760" y="510" as="targetPoint" />
          </mxGeometry>
        </mxCell>
        <mxCell id="6N65BO_zx4ahX__2NLoi-63" value="" style="endArrow=classic;html=1;rounded=0;entryX=0.375;entryY=-0.046;entryDx=0;entryDy=0;strokeColor=#3333FF;entryPerimeter=0;" parent="1" edge="1">
          <mxGeometry width="50" height="50" relative="1" as="geometry">
            <mxPoint x="770" y="48.94736842105263" as="sourcePoint" />
            <mxPoint x="769.74" y="437" as="targetPoint" />
          </mxGeometry>
        </mxCell>
        <mxCell id="6N65BO_zx4ahX__2NLoi-64" value="Setting &amp;amp; Serviervorlieben" style="text;html=1;align=center;verticalAlign=middle;resizable=0;points=[];autosize=1;strokeColor=none;fillColor=none;" parent="1" vertex="1">
          <mxGeometry x="717" y="30" width="160" height="30" as="geometry" />
        </mxCell>
        <mxCell id="6N65BO_zx4ahX__2NLoi-66" value="" style="endArrow=classic;html=1;rounded=0;entryX=0.84;entryY=-0.017;entryDx=0;entryDy=0;strokeColor=#3333FF;entryPerimeter=0;" parent="1" target="6N65BO_zx4ahX__2NLoi-5" edge="1">
          <mxGeometry width="50" height="50" relative="1" as="geometry">
            <mxPoint x="660" y="50" as="sourcePoint" />
            <mxPoint x="475" y="287" as="targetPoint" />
          </mxGeometry>
        </mxCell>
        <mxCell id="6N65BO_zx4ahX__2NLoi-67" value="Fleischrezept" style="text;html=1;align=center;verticalAlign=middle;resizable=0;points=[];autosize=1;strokeColor=none;fillColor=none;" parent="1" vertex="1">
          <mxGeometry x="585" y="28" width="90" height="30" as="geometry" />
        </mxCell>
        <mxCell id="6N65BO_zx4ahX__2NLoi-68" value="(&amp;lt;-das soll rund sein)" style="text;html=1;align=center;verticalAlign=middle;resizable=0;points=[];autosize=1;strokeColor=none;fillColor=none;" parent="1" vertex="1">
          <mxGeometry x="660" y="120" width="140" height="30" as="geometry" />
        </mxCell>
      </root>
    </mxGraphModel>
  </diagram>
</mxfile>
